<?xml version="1.0"?>
<svg xmlns="http://www.w3.org/2000/svg" xmlns:xlink="http://www.w3.org/1999/xlink" xmlns:svgjs="http://svgjs.com/svgjs" version="1.1" width="512" height="512" x="0" y="0" viewBox="0 0 97.083 97.083" style="enable-background:new 0 0 512 512" xml:space="preserve" class=""><g>
<g xmlns="http://www.w3.org/2000/svg">
	<g>
		<path d="M62.079,83.595h-5.137V30.29c0-1.104-0.896-2-2-2H35.005c-1.104,0-2,0.896-2,2v6.685c0,1.104,0.896,2,2,2h5.646v44.62    h-5.137c-1.104,0-2,0.896-2,2v9.488c0,1.104,0.896,2,2,2h26.564c1.104,0,2-0.896,2-2v-9.488    C64.079,84.491,63.185,83.595,62.079,83.595z" fill="#ffffff" data-original="#000000" style="" class=""/>
		<path d="M48.542,23.428c6.459,0,11.714-5.255,11.714-11.714S55.001,0,48.542,0S36.828,5.255,36.828,11.714    S42.083,23.428,48.542,23.428z" fill="#ffffff" data-original="#000000" style="" class=""/>
	</g>
</g>
<g xmlns="http://www.w3.org/2000/svg">
</g>
<g xmlns="http://www.w3.org/2000/svg">
</g>
<g xmlns="http://www.w3.org/2000/svg">
</g>
<g xmlns="http://www.w3.org/2000/svg">
</g>
<g xmlns="http://www.w3.org/2000/svg">
</g>
<g xmlns="http://www.w3.org/2000/svg">
</g>
<g xmlns="http://www.w3.org/2000/svg">
</g>
<g xmlns="http://www.w3.org/2000/svg">
</g>
<g xmlns="http://www.w3.org/2000/svg">
</g>
<g xmlns="http://www.w3.org/2000/svg">
</g>
<g xmlns="http://www.w3.org/2000/svg">
</g>
<g xmlns="http://www.w3.org/2000/svg">
</g>
<g xmlns="http://www.w3.org/2000/svg">
</g>
<g xmlns="http://www.w3.org/2000/svg">
</g>
<g xmlns="http://www.w3.org/2000/svg">
</g>
</g></svg>
