<?xml version="1.0" encoding="UTF-8"?>
<svg xmlns="http://www.w3.org/2000/svg" xmlns:xlink="http://www.w3.org/1999/xlink" width="20pt" height="20pt" viewBox="0 0 20 20" version="1.1">
<g id="surface1">
<path style=" stroke:none;fill-rule:nonzero;fill:#fff;fill-opacity:1;" d="M 9.816406 17.210938 L 9.804688 11.628906 L 5 8.828125 L 0.203125 11.617188 L 0.214844 17.242188 L 5 20.023438 Z M 5.488281 18.613281 L 5.496094 14.703125 L 8.835938 12.753906 L 8.84375 16.652344 Z M 5 9.953125 L 8.355469 11.910156 L 5.011719 13.863281 L 1.65625 11.898438 Z M 1.179688 12.746094 L 4.527344 14.703125 L 4.515625 18.617188 L 1.1875 16.683594 Z M 1.179688 12.746094 "/>
<path style=" stroke:none;fill-rule:nonzero;fill:#fff;fill-opacity:1;" d="M 15 8.828125 L 10.203125 11.617188 L 10.214844 17.242188 L 15 20.023438 L 19.816406 17.210938 L 19.804688 11.628906 Z M 15 9.953125 L 18.355469 11.910156 L 15.011719 13.863281 L 11.65625 11.898438 Z M 11.179688 12.746094 L 14.523438 14.703125 L 14.515625 18.617188 L 11.1875 16.683594 Z M 15.488281 18.613281 L 15.496094 14.703125 L 18.835938 12.753906 L 18.84375 16.652344 Z M 15.488281 18.613281 "/>
<path style=" stroke:none;fill-rule:nonzero;fill:#fff;fill-opacity:1;" d="M 14.816406 2.800781 L 10.011719 0 L 5.214844 2.789062 L 5.226562 8.414062 L 10.011719 11.191406 L 14.828125 8.382812 Z M 10.011719 1.125 L 13.367188 3.078125 L 10.023438 5.035156 L 6.667969 3.070312 Z M 6.191406 3.917969 L 9.535156 5.875 L 9.527344 9.789062 L 6.199219 7.855469 Z M 10.5 9.785156 L 10.507812 5.875 L 13.847656 3.925781 L 13.855469 7.824219 Z M 10.5 9.785156 "/>
</g>
</svg>
