<?xml version="1.0" encoding="UTF-8"?>
<svg xmlns="http://www.w3.org/2000/svg" xmlns:xlink="http://www.w3.org/1999/xlink" width="20pt" height="20pt" viewBox="0 0 20 20" version="1.1">
<g id="surface1">
<path style=" stroke:none;fill-rule:nonzero;fill:#fff;fill-opacity:1;" d="M 6.199219 16.289062 L 13.804688 16.289062 C 13.851562 15.894531 13.90625 15.433594 13.945312 14.960938 L 6.0625 14.960938 C 6.101562 15.445312 6.152344 15.902344 6.199219 16.289062 Z M 6.199219 16.289062 "/>
<path style=" stroke:none;fill-rule:nonzero;fill:#fff;fill-opacity:1;" d="M 9.988281 20 C 9.996094 20 10.003906 20 10.011719 20 C 12.417969 19.949219 13.457031 18.667969 13.640625 17.460938 L 6.359375 17.460938 C 6.539062 18.667969 7.582031 19.949219 9.988281 20 Z M 9.988281 20 "/>
<path style=" stroke:none;fill-rule:nonzero;fill:#fff;fill-opacity:1;" d="M 14.355469 1.804688 C 13.175781 0.628906 11.609375 -0.0117188 9.953125 0 C 6.570312 0.0234375 3.804688 2.816406 3.789062 6.222656 C 3.78125 7.625 4.234375 8.953125 5.09375 10.058594 C 5.703125 10.84375 5.976562 11.789062 5.976562 13.125 C 5.976562 13.34375 5.980469 13.566406 5.988281 13.789062 L 9.414062 13.789062 L 9.414062 8.992188 L 8.335938 7.914062 C 8.105469 7.683594 8.105469 7.316406 8.335938 7.085938 C 8.5625 6.855469 8.933594 6.855469 9.164062 7.085938 L 10 7.921875 L 10.835938 7.085938 C 11.0625 6.855469 11.433594 6.855469 11.664062 7.085938 C 11.890625 7.316406 11.890625 7.683594 11.664062 7.914062 L 10.585938 8.992188 L 10.585938 13.789062 L 14.015625 13.789062 C 14.019531 13.667969 14.023438 13.550781 14.023438 13.4375 C 14.023438 11.980469 14.328125 10.792969 14.878906 10.09375 C 16.824219 7.625 16.632812 4.0625 14.355469 1.804688 Z M 14.355469 1.804688 "/>
</g>
</svg>
