<?xml version="1.0" encoding="UTF-8" standalone="no"?>
<!DOCTYPE svg PUBLIC "-//W3C//DTD SVG 1.1//EN" "http://www.w3.org/Graphics/SVG/1.1/DTD/svg11.dtd">
<svg version="1.1" xmlns="http://www.w3.org/2000/svg" xmlns:xlink="http://www.w3.org/1999/xlink" preserveAspectRatio="xMidYMid meet" viewBox="0 0 640 640" width="640" height="640"><defs><path d="M250.94 358.36C252.1 349.68 253.44 339.54 254.4 329.14C235.04 329.14 80.13 329.14 60.77 329.14C61.73 339.8 62.98 349.85 64.13 358.36C101.49 358.36 232.26 358.36 250.94 358.36Z" id="b5wR2lrKbA"></path><path d="M157.78 440C216.88 438.88 242.4 410.7 246.91 384.14C229.03 384.14 85.95 384.14 68.06 384.14C72.48 410.7 98.1 438.88 157.2 440C157.39 440 157.58 440 157.78 440Z" id="c6zpA1KLx"></path><path d="M156.34 0C73.24 0.52 5.31 61.96 4.93 136.9C4.74 167.75 15.87 196.97 36.98 221.29C51.94 238.56 58.66 259.36 58.66 288.75C58.66 293.56 58.76 298.46 58.95 303.36C64.56 303.36 92.61 303.36 143.1 303.36L143.1 197.83C127.21 183.6 118.38 175.69 116.61 174.11C110.95 169.04 110.95 160.96 116.61 155.89C122.18 150.82 131.29 150.82 136.96 155.89C138.32 157.12 145.17 163.25 157.49 174.28C169.81 163.25 176.65 157.12 178.02 155.89C183.59 150.82 192.7 150.82 198.36 155.89C203.93 160.96 203.93 169.04 198.36 174.11C196.6 175.69 187.77 183.6 171.88 197.83L171.88 303.36C222.43 303.36 250.51 303.36 256.13 303.36C256.22 300.7 256.32 298.12 256.32 295.63C256.32 263.57 263.8 237.45 277.33 222.06C325.11 167.75 320.41 89.38 264.47 39.71C235.5 13.84 197.02 -0.25 156.34 0Z" id="kbWlSndSQD"></path><path d="M580.87 358.36C582.02 349.68 583.36 339.54 584.32 329.14C564.96 329.14 410.06 329.14 390.7 329.14C391.65 339.8 392.9 349.85 394.05 358.36C431.42 358.36 562.19 358.36 580.87 358.36Z" id="a1S3LZD5JU"></path><path d="M487.7 440C546.81 438.88 572.33 410.7 576.84 384.14C558.95 384.14 415.87 384.14 397.99 384.14C402.4 410.7 428.02 438.88 487.13 440C487.32 440 487.51 440 487.7 440Z" id="bInfX2cFS"></path><path d="M486.26 0C403.17 0.52 335.24 61.96 334.85 136.9C334.66 167.75 345.79 196.97 366.9 221.29C381.87 238.56 388.58 259.36 388.58 288.75C388.58 293.56 388.68 298.46 388.87 303.36C394.48 303.36 422.53 303.36 473.02 303.36L473.02 197.83C457.13 183.6 448.3 175.69 446.54 174.11C440.88 169.04 440.88 160.96 446.54 155.89C452.1 150.82 461.22 150.82 466.88 155.89C468.25 157.12 475.09 163.25 487.41 174.28C499.73 163.25 506.58 157.12 507.95 155.89C513.51 150.82 522.63 150.82 528.29 155.89C533.85 160.96 533.85 169.04 528.29 174.11C526.52 175.69 517.69 183.6 501.81 197.83L501.81 303.36C552.35 303.36 580.43 303.36 586.05 303.36C586.15 300.7 586.24 298.12 586.24 295.63C586.24 263.57 593.73 237.45 607.25 222.06C655.04 167.75 650.34 89.38 594.4 39.71C565.42 13.84 526.94 -0.25 486.26 0Z" id="dAh60CO64"></path><path d="M408.94 553.36C410.1 544.68 411.44 534.54 412.4 524.14C393.04 524.14 238.13 524.14 218.77 524.14C219.73 534.8 220.98 544.85 222.13 553.36C259.49 553.36 390.26 553.36 408.94 553.36Z" id="b1EjP0EPG9"></path><path d="M315.78 635C374.88 633.88 400.4 605.7 404.91 579.14C387.03 579.14 243.95 579.14 226.06 579.14C230.48 605.7 256.1 633.88 315.2 635C315.39 635 315.58 635 315.78 635Z" id="c9EmhpT13"></path><path d="M314.34 195C231.24 195.52 163.31 256.96 162.93 331.9C162.74 362.75 173.87 391.97 194.98 416.29C209.94 433.56 216.66 454.36 216.66 483.75C216.66 488.56 216.76 493.46 216.95 498.36C222.56 498.36 250.61 498.36 301.1 498.36L301.1 392.83C285.21 378.6 276.38 370.69 274.61 369.11C268.95 364.04 268.95 355.96 274.61 350.89C280.18 345.82 289.29 345.82 294.96 350.89C296.32 352.12 303.17 358.25 315.49 369.28C327.81 358.25 334.65 352.12 336.02 350.89C341.59 345.82 350.7 345.82 356.36 350.89C361.93 355.96 361.93 364.04 356.36 369.11C354.6 370.69 345.77 378.6 329.88 392.83L329.88 498.36C380.43 498.36 408.51 498.36 414.13 498.36C414.22 495.7 414.32 493.12 414.32 490.63C414.32 458.57 421.8 432.45 435.33 417.06C483.11 362.75 478.41 284.38 422.47 234.71C393.5 208.84 355.02 194.75 314.34 195Z" id="bHUXJjWsb"></path></defs><g><g><g><use xlink:href="#b5wR2lrKbA" opacity="1" fill="#ffffff" fill-opacity="1"></use><g><use xlink:href="#b5wR2lrKbA" opacity="1" fill-opacity="0" stroke="#000000" stroke-width="1" stroke-opacity="0"></use></g></g><g><use xlink:href="#c6zpA1KLx" opacity="1" fill="#ffffff" fill-opacity="1"></use><g><use xlink:href="#c6zpA1KLx" opacity="1" fill-opacity="0" stroke="#000000" stroke-width="1" stroke-opacity="0"></use></g></g><g><use xlink:href="#kbWlSndSQD" opacity="1" fill="#ffffff" fill-opacity="1"></use><g><use xlink:href="#kbWlSndSQD" opacity="1" fill-opacity="0" stroke="#000000" stroke-width="1" stroke-opacity="0"></use></g></g><g><use xlink:href="#a1S3LZD5JU" opacity="1" fill="#ffffff" fill-opacity="1"></use><g><use xlink:href="#a1S3LZD5JU" opacity="1" fill-opacity="0" stroke="#000000" stroke-width="1" stroke-opacity="0"></use></g></g><g><use xlink:href="#bInfX2cFS" opacity="1" fill="#ffffff" fill-opacity="1"></use><g><use xlink:href="#bInfX2cFS" opacity="1" fill-opacity="0" stroke="#000000" stroke-width="1" stroke-opacity="0"></use></g></g><g><use xlink:href="#dAh60CO64" opacity="1" fill="#ffffff" fill-opacity="1"></use><g><use xlink:href="#dAh60CO64" opacity="1" fill-opacity="0" stroke="#000000" stroke-width="1" stroke-opacity="0"></use></g></g><g><use xlink:href="#b1EjP0EPG9" opacity="1" fill="#ffffff" fill-opacity="1"></use><g><use xlink:href="#b1EjP0EPG9" opacity="1" fill-opacity="0" stroke="#000000" stroke-width="1" stroke-opacity="0"></use></g></g><g><use xlink:href="#c9EmhpT13" opacity="1" fill="#ffffff" fill-opacity="1"></use><g><use xlink:href="#c9EmhpT13" opacity="1" fill-opacity="0" stroke="#000000" stroke-width="1" stroke-opacity="0"></use></g></g><g><use xlink:href="#bHUXJjWsb" opacity="1" fill="#ffffff" fill-opacity="1"></use><g><use xlink:href="#bHUXJjWsb" opacity="1" fill-opacity="0" stroke="#000000" stroke-width="1" stroke-opacity="0"></use></g></g></g></g></svg>