<?xml version="1.0"?>
<svg xmlns="http://www.w3.org/2000/svg" xmlns:xlink="http://www.w3.org/1999/xlink" xmlns:svgjs="http://svgjs.com/svgjs" version="1.1" width="512" height="512" x="0" y="0" viewBox="0 0 512 512" style="enable-background:new 0 0 512 512" xml:space="preserve" class=""><g>
<g xmlns="http://www.w3.org/2000/svg" transform="translate(1 1)">
	<g>
		<g>
			<path d="M92.867,425.667h204.8h204.8c5.12,0,8.533-3.413,8.533-8.533v-153.6v-153.6V7.533C511,2.413,507.587-1,502.467-1H340.333     h-93.867h-153.6c-5.12,0-8.533,3.413-8.533,8.533v204.8V280.6V383v34.133C84.333,422.253,87.747,425.667,92.867,425.667z      M101.4,289.133h85.333c-4.267,45.227-40.107,81.067-85.333,85.333V289.133z M101.4,16.067h136.533v51.2H229.4     c-5.12,0-8.533,3.413-8.533,8.533s3.413,8.533,8.533,8.533h34.133c5.12,0,8.533-3.413,8.533-8.533s-3.413-8.533-8.533-8.533H255     v-51.2h76.8v93.867c0,5.12,3.413,8.533,8.533,8.533h34.133V127c0,5.12,3.413,8.533,8.533,8.533s8.533-3.413,8.533-8.533V92.867     c0-5.12-3.413-8.533-8.533-8.533s-8.533,3.413-8.533,8.533v8.533h-25.6V16.067h145.067V101.4H459.8v-8.533     c0-5.12-3.413-8.533-8.533-8.533c-5.12,0-8.533,3.413-8.533,8.533V127c0,5.12,3.413,8.533,8.533,8.533     c5.12,0,8.533-3.413,8.533-8.533v-8.533h34.133V255h-51.2v-8.533c0-5.12-3.413-8.533-8.533-8.533s-8.533,3.413-8.533,8.533V280.6     c0,5.12,3.413,8.533,8.533,8.533s8.533-3.413,8.533-8.533v-8.533h51.2V408.6H306.2V272.067h51.2v8.533     c0,5.12,3.413,8.533,8.533,8.533s8.533-3.413,8.533-8.533v-34.133c0-5.12-3.413-8.533-8.533-8.533s-8.533,3.413-8.533,8.533V255     h-59.733c-5.12,0-8.533,3.413-8.533,8.533V408.6H101.4v-17.388c57.425-4.332,102.4-52.044,102.4-110.612     c0-5.12-3.413-8.533-8.533-8.533H101.4v-51.2h145.067c5.12,0,8.533-3.413,8.533-8.533V152.6h8.533     c5.12,0,8.533-3.413,8.533-8.533c0-5.12-3.413-8.533-8.533-8.533H229.4c-5.12,0-8.533,3.413-8.533,8.533     c0,5.12,3.413,8.533,8.533,8.533h8.533v51.2H101.4V16.067z" fill="#ffffff" data-original="#000000" style="" class=""/>
			<path d="M64.707,423.107c3.413-3.413,3.413-8.533,0-11.947c-3.413-3.413-8.533-3.413-11.947,0l-11.093,11.093V28.013     L52.76,39.107c1.707,1.707,3.413,2.56,5.973,2.56s4.267-0.853,5.973-2.56c3.413-3.413,3.413-8.533,0-11.947L40.567,3.02     C39.172,0.511,36.532-1,33.133-1c-3.399,0-6.038,1.511-7.434,4.02L1.56,27.16c-3.413,3.413-3.413,8.533,0,11.947     s8.533,3.413,11.947,0L24.6,28.013v394.24L13.507,411.16c-3.413-3.413-8.533-3.413-11.947,0c-3.413,3.413-3.413,8.533,0,11.947     l24.14,24.14c1.395,2.509,4.034,4.02,7.434,4.02c3.399,0,6.038-1.511,7.433-4.02L64.707,423.107z" fill="#ffffff" data-original="#000000" style="" class=""/>
			<path d="M511,476.874c0-0.005,0-0.01,0-0.016c-0.002-3.395-1.512-6.031-4.02-7.426l-24.14-24.14     c-3.413-3.413-8.533-3.413-11.947,0c-3.413,3.413-3.413,8.533,0,11.947l11.093,11.093H87.747L98.84,457.24     c3.413-3.413,3.413-8.533,0-11.947c-3.413-3.413-8.533-3.413-11.947,0l-24.14,24.14c-2.509,1.395-4.02,4.034-4.02,7.434     s1.511,6.038,4.02,7.434l24.14,24.14c1.707,1.707,3.413,2.56,5.973,2.56c2.56,0,4.267-0.853,5.973-2.56     c3.413-3.413,3.413-8.533,0-11.947L87.747,485.4h394.24l-11.093,11.093c-3.413,3.413-3.413,8.533,0,11.947     c1.707,1.707,3.413,2.56,5.973,2.56s4.267-0.853,5.973-2.56l24.14-24.14C509.487,482.906,510.997,480.27,511,476.874z" fill="#ffffff" data-original="#000000" style="" class=""/>
		</g>
	</g>
</g>
<g xmlns="http://www.w3.org/2000/svg">
</g>
<g xmlns="http://www.w3.org/2000/svg">
</g>
<g xmlns="http://www.w3.org/2000/svg">
</g>
<g xmlns="http://www.w3.org/2000/svg">
</g>
<g xmlns="http://www.w3.org/2000/svg">
</g>
<g xmlns="http://www.w3.org/2000/svg">
</g>
<g xmlns="http://www.w3.org/2000/svg">
</g>
<g xmlns="http://www.w3.org/2000/svg">
</g>
<g xmlns="http://www.w3.org/2000/svg">
</g>
<g xmlns="http://www.w3.org/2000/svg">
</g>
<g xmlns="http://www.w3.org/2000/svg">
</g>
<g xmlns="http://www.w3.org/2000/svg">
</g>
<g xmlns="http://www.w3.org/2000/svg">
</g>
<g xmlns="http://www.w3.org/2000/svg">
</g>
<g xmlns="http://www.w3.org/2000/svg">
</g>
</g></svg>
