<?xml version="1.0" encoding="UTF-8"?>
<svg xmlns="http://www.w3.org/2000/svg" xmlns:xlink="http://www.w3.org/1999/xlink" width="20pt" height="20pt" viewBox="0 0 20 20" version="1.1">
<g id="surface1">
<path style=" stroke:none;fill-rule:nonzero;fill:#fff;fill-opacity:1;" d="M 19.167969 10.816406 L 0.832031 10.816406 C 0.375 10.816406 0 10.441406 0 9.984375 C 0 9.523438 0.375 9.148438 0.832031 9.148438 L 19.167969 9.148438 C 19.625 9.148438 20 9.523438 20 9.984375 C 20 10.441406 19.625 10.816406 19.167969 10.816406 Z M 19.167969 10.816406 "/>
<path style=" stroke:none;fill-rule:nonzero;fill:#fff;fill-opacity:1;" d="M 19.167969 4.425781 L 0.832031 4.425781 C 0.375 4.425781 0 4.054688 0 3.59375 C 0 3.132812 0.375 2.761719 0.832031 2.761719 L 19.167969 2.761719 C 19.625 2.761719 20 3.132812 20 3.59375 C 20 4.054688 19.625 4.425781 19.167969 4.425781 Z M 19.167969 4.425781 "/>
<path style=" stroke:none;fill-rule:nonzero;fill:#fff;fill-opacity:1;" d="M 19.167969 17.203125 L 0.832031 17.203125 C 0.375 17.203125 0 16.832031 0 16.371094 C 0 15.910156 0.375 15.539062 0.832031 15.539062 L 19.167969 15.539062 C 19.625 15.539062 20 15.910156 20 16.371094 C 20 16.832031 19.625 17.203125 19.167969 17.203125 Z M 19.167969 17.203125 "/>
</g>
</svg>
