<?xml version="1.0" encoding="UTF-8"?>
<svg xmlns="http://www.w3.org/2000/svg" xmlns:xlink="http://www.w3.org/1999/xlink" width="20pt" height="20pt" viewBox="0 0 20 20" version="1.1">
<g id="surface1">
<path style=" stroke:none;fill-rule:nonzero;fill:#fff;fill-opacity:1;" d="M 12.5 10.832031 C 12.039062 10.832031 11.667969 11.207031 11.667969 11.667969 L 11.667969 15 C 11.667969 15.460938 11.292969 15.832031 10.832031 15.832031 L 8.332031 15.832031 L 8.332031 3.332031 C 8.332031 2.621094 7.878906 1.984375 7.199219 1.75 L 6.953125 1.667969 L 10.832031 1.667969 C 11.292969 1.667969 11.667969 2.039062 11.667969 2.5 L 11.667969 5 C 11.667969 5.460938 12.039062 5.832031 12.5 5.832031 C 12.960938 5.832031 13.332031 5.460938 13.332031 5 L 13.332031 2.5 C 13.332031 1.121094 12.210938 0 10.832031 0 L 1.875 0 C 1.84375 0 1.816406 0.015625 1.785156 0.0195312 C 1.746094 0.015625 1.707031 0 1.667969 0 C 0.746094 0 0 0.746094 0 1.667969 L 0 16.667969 C 0 17.378906 0.453125 18.015625 1.136719 18.25 L 6.148438 19.921875 C 6.320312 19.976562 6.488281 20 6.667969 20 C 7.585938 20 8.332031 19.253906 8.332031 18.332031 L 8.332031 17.5 L 10.832031 17.5 C 12.210938 17.5 13.332031 16.378906 13.332031 15 L 13.332031 11.667969 C 13.332031 11.207031 12.960938 10.832031 12.5 10.832031 Z M 12.5 10.832031 "/>
<path style=" stroke:none;fill-rule:nonzero;fill:#fff;fill-opacity:1;" d="M 19.753906 7.746094 L 16.421875 4.410156 C 16.183594 4.171875 15.824219 4.101562 15.515625 4.230469 C 15.203125 4.359375 15 4.664062 15 5 L 15 7.5 L 11.667969 7.5 C 11.207031 7.5 10.832031 7.875 10.832031 8.332031 C 10.832031 8.792969 11.207031 9.167969 11.667969 9.167969 L 15 9.167969 L 15 11.667969 C 15 12.003906 15.203125 12.308594 15.515625 12.4375 C 15.824219 12.566406 16.183594 12.496094 16.421875 12.257812 L 19.753906 8.921875 C 20.082031 8.597656 20.082031 8.070312 19.753906 7.746094 Z M 19.753906 7.746094 "/>
</g>
</svg>
