<?xml version="1.0" encoding="UTF-8"?>
<svg xmlns="http://www.w3.org/2000/svg" xmlns:xlink="http://www.w3.org/1999/xlink" width="20pt" height="20pt" viewBox="0 0 20 20" version="1.1">
<g id="surface1">
<path style=" stroke:none;fill-rule:nonzero;fill:#fff;fill-opacity:1;" d="M 13.304688 10.003906 L 19.492188 3.8125 C 20.175781 3.128906 20.175781 2.023438 19.492188 1.339844 L 18.667969 0.515625 C 17.984375 -0.167969 16.875 -0.167969 16.191406 0.515625 L 10.003906 6.703125 L 3.8125 0.511719 C 3.128906 -0.171875 2.023438 -0.171875 1.339844 0.511719 L 0.511719 1.339844 C -0.171875 2.023438 -0.171875 3.128906 0.511719 3.8125 L 6.703125 10.003906 L 0.515625 16.191406 C -0.167969 16.875 -0.167969 17.984375 0.515625 18.667969 L 1.339844 19.492188 C 2.023438 20.175781 3.132812 20.175781 3.8125 19.492188 L 10.003906 13.304688 L 16.191406 19.492188 C 16.875 20.175781 17.984375 20.175781 18.667969 19.492188 L 19.492188 18.667969 C 20.175781 17.984375 20.175781 16.875 19.492188 16.191406 Z M 13.304688 10.003906 "/>
</g>
</svg>
