<?xml version="1.0" encoding="UTF-8"?>
<svg xmlns="http://www.w3.org/2000/svg" xmlns:xlink="http://www.w3.org/1999/xlink" width="20pt" height="20pt" viewBox="0 0 20 20" version="1.1">
<g id="surface1">
<path style=" stroke:none;fill-rule:nonzero;fill:#fff;fill-opacity:1;" d="M 20 13.535156 C 20 10.621094 18.035156 8.074219 15.265625 7.304688 C 15.089844 3.246094 11.738281 0 7.636719 0 C 3.425781 0 0 3.425781 0 7.636719 C 0 9.007812 0.367188 10.34375 1.058594 11.519531 L 0.0273438 15.246094 L 3.753906 14.214844 C 4.832031 14.851562 6.050781 15.210938 7.304688 15.265625 C 8.074219 18.035156 10.621094 20 13.535156 20 C 14.699219 20 15.832031 19.691406 16.824219 19.101562 L 19.972656 19.972656 L 19.101562 16.824219 C 19.691406 15.832031 20 14.699219 20 13.535156 Z M 3.941406 12.949219 L 1.707031 13.566406 L 2.324219 11.332031 L 2.183594 11.113281 C 1.523438 10.074219 1.171875 8.875 1.171875 7.636719 C 1.171875 4.070312 4.070312 1.171875 7.636719 1.171875 C 11.203125 1.171875 14.101562 4.070312 14.101562 7.636719 C 14.101562 11.203125 11.203125 14.101562 7.636719 14.101562 C 6.398438 14.101562 5.199219 13.75 4.160156 13.089844 Z M 18.292969 18.292969 L 16.636719 17.832031 L 16.414062 17.976562 C 15.558594 18.535156 14.5625 18.828125 13.535156 18.828125 C 11.242188 18.828125 9.230469 17.347656 8.515625 15.222656 C 12.027344 14.816406 14.816406 12.027344 15.222656 8.515625 C 17.347656 9.230469 18.828125 11.242188 18.828125 13.535156 C 18.828125 14.5625 18.535156 15.558594 17.976562 16.414062 L 17.832031 16.636719 Z M 18.292969 18.292969 "/>
<path style=" stroke:none;fill-rule:nonzero;fill:#fff;fill-opacity:1;" d="M 7.050781 10.585938 L 8.222656 10.585938 L 8.222656 11.757812 L 7.050781 11.757812 Z M 7.050781 10.585938 "/>
<path style=" stroke:none;fill-rule:nonzero;fill:#fff;fill-opacity:1;" d="M 8.808594 5.859375 C 8.808594 6.191406 8.671875 6.5 8.425781 6.722656 L 7.050781 7.984375 L 7.050781 9.414062 L 8.222656 9.414062 L 8.222656 8.5 L 9.21875 7.589844 C 9.703125 7.144531 9.980469 6.515625 9.980469 5.859375 C 9.980469 4.566406 8.929688 3.515625 7.636719 3.515625 C 6.34375 3.515625 5.292969 4.566406 5.292969 5.859375 L 6.464844 5.859375 C 6.464844 5.214844 6.992188 4.6875 7.636719 4.6875 C 8.28125 4.6875 8.808594 5.214844 8.808594 5.859375 Z M 8.808594 5.859375 "/>
</g>
</svg>
