<?xml version="1.0" encoding="UTF-8" standalone="no"?>
<!DOCTYPE svg PUBLIC "-//W3C//DTD SVG 1.1//EN" "http://www.w3.org/Graphics/SVG/1.1/DTD/svg11.dtd">
<svg version="1.1" xmlns="http://www.w3.org/2000/svg" xmlns:xlink="http://www.w3.org/1999/xlink" preserveAspectRatio="xMidYMid meet" viewBox="0 0 640 640" width="640" height="640"><defs><path d="M238.78 449.83L223.31 422.21L195.69 395.14L171.93 344.31L165.3 292.38L177.46 242.1L194.03 209.5L229.31 176.91L273.04 152.89L333.81 146.52L389.61 163.09L429.94 192.38L459.78 233.81L473.59 279.67L473.59 328.58L454.25 381.33L418.34 422.21L403.43 453.15L395.14 506.19L247.62 506.19L238.78 449.83Z" id="c6kQAizdV"></path><path d="M271.93 632.71L370.83 632.71L381.33 613.92L370.83 597.9L271.93 597.9L257.02 615.13L271.93 632.71Z" id="cTRimB7ua"></path><path d="M248.85 569.17L389.06 571.38L400.66 553.7L390.94 540.44L248.85 542.1L240.44 555.34L248.85 569.17Z" id="b6CWuZ1YI8"></path><path d="M155.9 302.53C155.9 349.9 176.62 395.49 211.55 426.27C237.6 452.32 235.23 507.97 234.64 508.57C234.64 511.53 235.23 513.89 237.6 516.26C239.38 518.04 242.34 519.22 244.71 519.22C259.8 519.22 380.58 519.22 395.68 519.22C398.64 519.22 401 518.04 402.78 516.26C404.56 514.49 405.74 511.53 405.74 508.57C405.74 507.97 402.78 452.32 428.83 426.27C429.42 425.68 430.02 425.09 430.61 424.5C464.95 393.12 485.08 348.71 485.08 302.53C485.08 211.95 411.07 137.95 320.49 137.95C229.9 137.95 155.9 211.95 155.9 302.53ZM413.44 413.25C390.35 438.11 386.2 478.96 385.61 498.5C372.53 498.5 267.85 498.5 254.77 498.5C254.18 478.96 250.03 436.34 225.17 410.88C193.79 383.64 175.44 343.98 175.44 301.94C175.44 222.02 239.97 157.48 319.89 157.48C399.82 157.48 464.35 222.02 464.35 301.94C464.35 343.98 446.59 383.64 415.21 410.88C414.62 411.47 413.44 412.65 413.44 413.25Z" id="b1wO9QNHT2"></path><path d="M309.83 190.05C309.83 195.37 314.57 200.11 319.89 200.11C379.69 200.11 427.65 248.66 427.65 307.86C427.65 313.19 432.38 317.93 437.71 317.93C443.04 317.93 447.78 313.19 447.78 307.86C448.37 237.41 390.94 179.98 319.89 179.98C314.57 179.98 309.83 184.72 309.83 190.05Z" id="a1kPfvhzUw"></path><path d="M254.18 530.47C240.56 530.47 229.31 541.72 229.31 555.34C229.31 568.95 240.56 580.2 254.18 580.2C267.26 580.2 371.94 580.2 385.02 580.2C399.23 579.61 410.48 568.95 410.48 555.34C410.48 541.72 399.23 530.47 385.61 530.47C359.33 530.47 267.32 530.47 254.18 530.47ZM254.18 559.48C251.81 559.48 249.44 557.71 249.44 554.75C249.44 551.79 251.22 550.01 254.18 550.01C267.26 550.01 371.94 550.01 385.02 550.01C387.39 550.01 389.76 551.79 389.76 554.75C389.76 557.71 387.98 559.48 385.61 559.48C359.33 559.48 267.32 559.48 254.18 559.48Z" id="b6f3RdbFS"></path><path d="M273.72 590.27C260.1 590.27 248.85 601.52 248.85 615.13C248.85 628.75 260.1 640 273.72 640C282.95 640 356.84 640 366.07 640C379.69 640 390.94 628.75 390.94 615.13C390.94 600.93 379.69 590.27 366.07 590.27C347.6 590.27 282.95 590.27 273.72 590.27ZM273.72 619.28C271.35 619.28 268.98 617.5 268.98 614.54C268.98 611.58 270.76 609.81 273.72 609.81C282.95 609.81 356.84 609.81 366.07 609.81C368.44 609.81 370.81 611.58 370.81 614.54C370.81 617.5 368.44 619.28 366.07 619.28C347.6 619.28 282.95 619.28 273.72 619.28Z" id="a1woJyaneQ"></path></defs><g><g><g><use xlink:href="#c6kQAizdV" opacity="1" fill="#3e3e3e" fill-opacity="1"></use><g><use xlink:href="#c6kQAizdV" opacity="1" fill-opacity="0" stroke="#000000" stroke-width="1" stroke-opacity="1"></use></g></g><g><use xlink:href="#cTRimB7ua" opacity="1" fill="#3e3e3e" fill-opacity="1"></use><g><use xlink:href="#cTRimB7ua" opacity="1" fill-opacity="0" stroke="#000000" stroke-width="1" stroke-opacity="1"></use></g></g><g><use xlink:href="#b6CWuZ1YI8" opacity="1" fill="#3e3e3e" fill-opacity="1"></use><g><use xlink:href="#b6CWuZ1YI8" opacity="1" fill-opacity="0" stroke="#000000" stroke-width="1" stroke-opacity="1"></use></g></g><g><use xlink:href="#b1wO9QNHT2" opacity="1" fill="#231f20" fill-opacity="1"></use><g><use xlink:href="#b1wO9QNHT2" opacity="1" fill-opacity="0" stroke="#000000" stroke-width="1" stroke-opacity="0"></use></g></g><g><use xlink:href="#a1kPfvhzUw" opacity="1" fill="#231f20" fill-opacity="1"></use><g><use xlink:href="#a1kPfvhzUw" opacity="1" fill-opacity="0" stroke="#000000" stroke-width="1" stroke-opacity="0"></use></g></g><g><use xlink:href="#b6f3RdbFS" opacity="1" fill="#231f20" fill-opacity="1"></use><g><use xlink:href="#b6f3RdbFS" opacity="1" fill-opacity="0" stroke="#000000" stroke-width="1" stroke-opacity="0"></use></g></g><g><use xlink:href="#a1woJyaneQ" opacity="1" fill="#231f20" fill-opacity="1"></use><g><use xlink:href="#a1woJyaneQ" opacity="1" fill-opacity="0" stroke="#000000" stroke-width="1" stroke-opacity="0"></use></g></g></g></g></svg>