<?xml version="1.0" encoding="UTF-8"?>
<svg xmlns="http://www.w3.org/2000/svg" xmlns:xlink="http://www.w3.org/1999/xlink" width="20pt" height="20pt" viewBox="0 0 20 20" version="1.1">
<g id="surface1">
<path style=" stroke:none;fill-rule:nonzero;fill:#fff;fill-opacity:1;" d="M 18.214844 8.214844 L 12.144531 8.214844 C 11.945312 8.214844 11.785156 8.054688 11.785156 7.855469 L 11.785156 1.785156 C 11.785156 0.800781 10.984375 0 10 0 C 9.015625 0 8.214844 0.800781 8.214844 1.785156 L 8.214844 7.855469 C 8.214844 8.054688 8.054688 8.214844 7.855469 8.214844 L 1.785156 8.214844 C 0.800781 8.214844 0 9.015625 0 10 C 0 10.984375 0.800781 11.785156 1.785156 11.785156 L 7.855469 11.785156 C 8.054688 11.785156 8.214844 11.945312 8.214844 12.144531 L 8.214844 18.214844 C 8.214844 19.199219 9.015625 20 10 20 C 10.984375 20 11.785156 19.199219 11.785156 18.214844 L 11.785156 12.144531 C 11.785156 11.945312 11.945312 11.785156 12.144531 11.785156 L 18.214844 11.785156 C 19.199219 11.785156 20 10.984375 20 10 C 20 9.015625 19.199219 8.214844 18.214844 8.214844 Z M 18.214844 8.214844 "/>
</g>
</svg>
